<svg width="31" height="31" viewBox="0 0 31 31" fill="none" xmlns="http://www.w3.org/2000/svg">
<path d="M21.2287 4.80359C21.5301 4.12438 21.3053 3.33113 20.6874 2.89485C20.0694 2.45857 19.2268 2.49823 18.6497 2.98409L5.57557 14.0895C5.06487 14.5258 4.88101 15.2248 5.12104 15.8396C5.36108 16.4543 5.97392 16.8708 6.65316 16.8708H12.3475L8.42021 25.765C8.11889 26.4442 8.3436 27.2374 8.96156 27.6737C9.57952 28.11 10.4222 28.0703 10.9993 27.5845L24.0734 16.4791C24.5841 16.0428 24.7679 15.3438 24.5279 14.729C24.2879 14.1143 23.6801 13.7028 22.9958 13.7028H17.3014L21.2287 4.80359Z" fill="#FFC800"/>
</svg>
