<svg width="29" height="29" viewBox="0 0 29 29" fill="none" xmlns="http://www.w3.org/2000/svg">
<g clip-path="url(#clip0_1_1476)">
<path d="M14.059 18.0769C12.126 18.0769 10.559 19.6439 10.559 21.5769V28.5769H17.559V21.5769C17.559 19.6439 15.992 18.0769 14.059 18.0769Z" fill="#333333"/>
<path d="M19.8913 21.5646V28.5646H24.5579C26.4909 28.5646 28.0579 26.9976 28.0579 25.0646V14.4234C28.0582 13.8173 27.8227 13.2349 27.4011 12.7994L17.4868 2.08125C15.7374 0.188511 12.785 0.0723 10.8922 1.82164C10.8023 1.90477 10.7157 1.99134 10.6326 2.08125L0.735774 12.7959C0.301446 13.2332 0.0577584 13.8246 0.0579224 14.4409V25.0646C0.0579224 26.9976 1.62494 28.5646 3.55792 28.5646H8.22457V21.5646C8.24639 18.3833 10.8149 15.7854 13.9161 15.7106C17.121 15.6333 19.8668 18.2754 19.8913 21.5646Z" fill="#FFC800"/>
<path d="M14.0579 18.0742C12.1249 18.0742 10.5579 19.6412 10.5579 21.5742V28.5742H17.5579V21.5742C17.5579 19.6412 15.9909 18.0742 14.0579 18.0742Z" fill="#FF4B4B"/>
</g>
<defs>
<clipPath id="clip0_1_1476">
<rect width="28" height="28" fill="white" transform="translate(0.0625 0.589844)"/>
</clipPath>
</defs>
</svg>
