<svg width="29" height="29" viewBox="0 0 29 29" fill="none" xmlns="http://www.w3.org/2000/svg">
<g clip-path="url(#clip0_1_1493)">
<path d="M3.88387 27.5653C4.52093 27.8376 5.22524 27.9115 5.90495 27.7775C6.58465 27.6435 7.20819 27.3077 7.6942 26.814L14.56 19.9855L21.4259 26.814C21.746 27.1388 22.1274 27.3969 22.5479 27.5733C22.9685 27.7497 23.4198 27.841 23.8759 27.8418C24.3446 27.8405 24.8085 27.7465 25.2409 27.5653C25.8831 27.3054 26.4321 26.8579 26.8161 26.2811C27.2001 25.7044 27.4013 25.0253 27.3934 24.3325V5.92367C27.3915 4.37714 26.7763 2.89448 25.6828 1.80092C24.5892 0.707361 23.1066 0.0921845 21.56 0.090332L7.56004 0.090332C6.01351 0.0921845 4.53086 0.707361 3.43729 1.80092C2.34373 2.89448 1.72856 4.37714 1.7267 5.92367V24.3325C1.71918 25.0259 1.92104 25.7054 2.30591 26.2821C2.69078 26.8589 3.24074 27.3061 3.88387 27.5653Z" fill="#FEC701"/>
</g>
<defs>
<clipPath id="clip0_1_1493">
<rect width="28" height="28" fill="white" transform="translate(0.56189 0.0926514)"/>
</clipPath>
</defs>
</svg>
