<svg width="29" height="29" viewBox="0 0 29 29" fill="none" xmlns="http://www.w3.org/2000/svg">
<g clip-path="url(#clip0_1_1497)">
<path d="M19.2279 27.2904C17.7673 27.8084 16.1969 28.0907 14.5613 28.0907C12.9256 28.0907 11.3553 27.8084 9.89461 27.2904V24.5907C9.89461 22.017 11.9876 19.924 14.5613 19.924C17.1349 19.924 19.2279 22.017 19.2279 24.5907V27.2904Z" fill="#CE82FF"/>
<path fill-rule="evenodd" clip-rule="evenodd" d="M28.5613 14.0907C28.5613 19.2625 25.7426 23.7869 21.5613 26.2112V24.5907C21.5613 20.7302 18.4218 17.5907 14.5613 17.5907C10.7008 17.5907 7.56128 20.7302 7.56128 24.5907V26.2112C3.37995 23.7869 0.561279 19.2625 0.561279 14.0907C0.561279 6.37086 6.84145 0.0906982 14.5613 0.0906982C22.2811 0.0906982 28.5613 6.37086 28.5613 14.0907ZM19.2279 10.5907C19.2279 8.01703 17.1349 5.92403 14.5613 5.92403C11.9876 5.92403 9.89461 8.01703 9.89461 10.5907C9.89461 13.1644 11.9876 15.2574 14.5613 15.2574C17.1349 15.2574 19.2279 13.1644 19.2279 10.5907Z" fill="#9069CD"/>
<path d="M14.5613 8.25737C13.2744 8.25737 12.2279 9.30386 12.2279 10.5907C12.2279 11.8775 13.2744 12.924 14.5613 12.924C15.8481 12.924 16.8946 11.8775 16.8946 10.5907C16.8946 9.30386 15.8481 8.25737 14.5613 8.25737Z" fill="#CE82FF"/>
</g>
<defs>
<clipPath id="clip0_1_1497">
<rect width="28" height="28" fill="white" transform="translate(0.56189 0.0925903)"/>
</clipPath>
</defs>
</svg>
