<svg width="29" height="29" viewBox="0 0 29 29" fill="none" xmlns="http://www.w3.org/2000/svg">
<g clip-path="url(#clip0_1_1485)">
<path d="M12.2328 23.4294C14.9253 23.4329 17.5355 22.5013 19.6174 20.7939L26.5807 27.756C27.0443 28.2038 27.7832 28.1909 28.231 27.7273C28.6678 27.275 28.6678 26.5579 28.231 26.1056L21.269 19.1424C25.3473 14.1507 24.6069 6.7978 19.6151 2.71942C14.6233 -1.35897 7.27049 -0.618516 3.1921 4.37326C-0.88628 9.36503 -0.14583 16.7178 4.84594 20.7963C6.93085 22.4997 9.54053 23.4299 12.2328 23.4294Z" fill="#1CB0F6"/>
<path fill-rule="evenodd" clip-rule="evenodd" d="M12.1421 21.0089C17.3008 21.0089 21.4827 16.827 21.4827 11.6683C21.4827 6.50964 17.3008 2.3277 12.1421 2.3277C6.98339 2.3277 2.80145 6.50964 2.80145 11.6683C2.80145 16.827 6.98339 21.0089 12.1421 21.0089ZM12.1427 19.1398C16.2697 19.1398 19.6152 15.7943 19.6152 11.6673C19.6152 7.54038 16.2697 4.19482 12.1427 4.19482C8.01577 4.19482 4.67022 7.54038 4.67022 11.6673C4.67022 15.7943 8.01577 19.1398 12.1427 19.1398Z" fill="white"/>
</g>
<defs>
<clipPath id="clip0_1_1485">
<rect width="28" height="28" fill="white" transform="translate(0.561523 0.0925903)"/>
</clipPath>
</defs>
</svg>
