<svg width="31" height="31" viewBox="0 0 31 31" fill="none" xmlns="http://www.w3.org/2000/svg">
<path d="M8.21733 2.5918C5.62376 2.5918 3.51953 4.72371 3.51953 7.35141V23.2168C3.51953 25.8445 5.62376 27.9764 8.21733 27.9764H22.3107H23.8767C24.7428 27.9764 25.4426 27.2674 25.4426 26.3899C25.4426 25.5123 24.7428 24.8033 23.8767 24.8033V21.6303C24.7428 21.6303 25.4426 20.9213 25.4426 20.0437V4.17834C25.4426 3.30078 24.7428 2.5918 23.8767 2.5918H22.3107H8.21733ZM8.21733 21.6303H20.7448V24.8033H8.21733C7.35118 24.8033 6.6514 24.0943 6.6514 23.2168C6.6514 22.3392 7.35118 21.6303 8.21733 21.6303ZM9.78327 9.73122C9.78327 9.29492 10.1356 8.93795 10.5662 8.93795H19.9618C20.3925 8.93795 20.7448 9.29492 20.7448 9.73122C20.7448 10.1675 20.3925 10.5245 19.9618 10.5245H10.5662C10.1356 10.5245 9.78327 10.1675 9.78327 9.73122ZM10.5662 12.111H19.9618C20.3925 12.111 20.7448 12.468 20.7448 12.9043C20.7448 13.3406 20.3925 13.6976 19.9618 13.6976H10.5662C10.1356 13.6976 9.78327 13.3406 9.78327 12.9043C9.78327 12.468 10.1356 12.111 10.5662 12.111Z" fill="#00ADFF"/>
<path d="M9.78327 9.73122C9.78327 9.29492 10.1356 8.93795 10.5662 8.93795H19.9618C20.3925 8.93795 20.7448 9.29492 20.7448 9.73122C20.7448 10.1675 20.3925 10.5245 19.9618 10.5245H10.5662C10.1356 10.5245 9.78327 10.1675 9.78327 9.73122Z" fill="white"/>
<path d="M10.5662 12.111H19.9618C20.3925 12.111 20.7448 12.468 20.7448 12.9043C20.7448 13.3406 20.3925 13.6976 19.9618 13.6976H10.5662C10.1356 13.6976 9.78327 13.3406 9.78327 12.9043C9.78327 12.468 10.1356 12.111 10.5662 12.111Z" fill="white"/>
</svg>
